{
 "cells": [
  {
   "cell_type": "code",
   "execution_count": null,
   "id": "de63a85c",
   "metadata": {},
   "outputs": [],
   "source": [
    "rm /mnt/HDD500/collections/Beautiful_Backgrounds/00756.jpg"
   ]
  },
  {
   "cell_type": "code",
   "execution_count": null,
   "id": "34780068",
   "metadata": {},
   "outputs": [],
   "source": [
    "#!/bin/bash\n",
    "\n",
    "directory=\"/home/jack/Desktop/HDD500/collections/images\"\n",
    "\n",
    "for file in \"$directory\"/*.jpg; do\n",
    "    if file --mime-type \"$file\" | grep -q \"jpeg$\"; then\n",
    "        echo \".\"\n",
    "    else\n",
    "        echo \"File $file is not a valid JPEG file.\"\n",
    "        rm $file\n",
    "    fi\n",
    "done\n"
   ]
  },
  {
   "cell_type": "code",
   "execution_count": null,
   "id": "f72044dd",
   "metadata": {},
   "outputs": [],
   "source": [
    "import os\n",
    "from PIL import Image\n",
    "import datetime\n",
    "from time import sleep\n",
    "\n",
    "def convert_images_to_raw(directory):\n",
    "    # Create a new directory to store the raw data files\n",
    "    raw_directory = directory + \"_raw\"\n",
    "    os.makedirs(raw_directory, exist_ok=True)\n",
    "\n",
    "    # Iterate over each image file in the directory\n",
    "    for filename in os.listdir(directory):\n",
    "        if filename.endswith(\".jpg\") or filename.endswith(\".jpeg\"):\n",
    "            image_path = os.path.join(directory, filename)\n",
    "            image = Image.open(image_path)\n",
    "\n",
    "            # Get the raw pixel data of the image\n",
    "            raw_data = image.tobytes()\n",
    "\n",
    "            # Get the current date and time with microseconds\n",
    "            current_datetime = datetime.datetime.now().strftime(\"%Y-%m-%d-%H-%M-%S-%f\")\n",
    "            sleep(0.5)\n",
    "\n",
    "            # Save the raw data as a binary file with the date and time as the filename\n",
    "            raw_filename = current_datetime + \".raw\"\n",
    "            raw_filepath = os.path.join(raw_directory, raw_filename)\n",
    "            print(raw_filepath)\n",
    "            with open(raw_filepath, \"wb\") as file:\n",
    "                file.write(raw_data)\n",
    "\n",
    "# Example usage\n",
    "directory = \"/mnt/HDD500/collections/Beautiful_Backgrounds\"\n",
    "convert_images_to_raw(directory)\n"
   ]
  },
  {
   "cell_type": "code",
   "execution_count": null,
   "id": "ce5e4965",
   "metadata": {},
   "outputs": [],
   "source": [
    "import os\n",
    "from PIL import Image\n",
    "import datetime\n",
    "from time import sleep\n",
    "def convert_images_to_raw(directory):\n",
    "    # Create a new directory to store the raw data files\n",
    "    raw_directory = directory + \"_raw\"\n",
    "    os.makedirs(raw_directory, exist_ok=True)\n",
    "\n",
    "    # Iterate over each image file in the directory\n",
    "    for filename in os.listdir(directory):\n",
    "        if filename.endswith(\".jpg\") or filename.endswith(\".jpeg\"):\n",
    "            image_path = os.path.join(directory, filename)\n",
    "            image = Image.open(image_path)\n",
    "\n",
    "            # Get the raw pixel data of the image\n",
    "            raw_data = image.tobytes()\n",
    "\n",
    "            # Get the current date and time with microseconds\n",
    "            current_datetime = datetime.datetime.now().strftime(\"%Y-%m-%d-%H-%M-%S-%f\")\n",
    "            sleep(.5)\n",
    "            # Save the raw data as a binary file with the date and time as the filename\n",
    "            raw_filename = current_datetime + \".raw\"\n",
    "            raw_filepath = os.path.join(raw_directory, raw_filename)\n",
    "            print(raw_filepath)\n",
    "            with open(raw_filepath, \"wb\") as file:\n",
    "                file.write(raw_data)\n",
    "\n",
    "# Example usage\n",
    "directory =\"/mnt/HDD500/collections/Beautiful_Backgrounds\"\n",
    "convert_images_to_raw(directory)\n",
    "import-im6.q16: attempt to perform an operation not allowed by the security policy `PS' @ error/constitute.c/IsCoderAuthorized/408.\n",
    "from: too many arguments\n",
    "import-im6.q16: attempt to perform an operation not allowed by the security policy `PS' @ error/constitute.c/IsCoderAuthorized/408.\n",
    "from: too many arguments\n",
    "bash: syntax error near unexpected token `('\n",
    "raw_directory: command not found\n",
    "bash: syntax error near unexpected token `raw_directory,'\n",
    "bash: syntax error near unexpected token `('\n",
    "bash: syntax error near unexpected token `\".jpg\"'\n",
    "bash: syntax error near unexpected token `('\n",
    "bash: syntax error near unexpected token `('\n",
    "bash: syntax error near unexpected token `('\n",
    "bash: syntax error near unexpected token `('\n",
    "bash: syntax error near unexpected token `.5'\n",
    "raw_filename: command not found\n",
    "bash: syntax error near unexpected token `('\n",
    "bash: syntax error near unexpected token `raw_filepath'\n",
    "bash: syntax error near unexpected token `('\n",
    "bash: syntax error near unexpected token `raw_data'\n",
    "directory: command not found\n",
    "bash: syntax error near unexpected token `directory'\n"
   ]
  },
  {
   "cell_type": "code",
   "execution_count": null,
   "id": "7dafc747",
   "metadata": {},
   "outputs": [],
   "source": [
    "import os\n",
    "from PIL import Image\n",
    "\n",
    "def restore_raw_to_jpg(raw_directory):\n",
    "    # Create a new directory to store the restored JPEG files\n",
    "    jpg_directory = raw_directory + \"_restored\"\n",
    "    os.makedirs(jpg_directory, exist_ok=True)\n",
    "\n",
    "    # Iterate over each raw data file in the directory\n",
    "    for filename in os.listdir(raw_directory):\n",
    "        if filename.endswith(\".raw\"):\n",
    "            raw_filepath = os.path.join(raw_directory, filename)\n",
    "\n",
    "            # Read the raw data from the file\n",
    "            with open(raw_filepath, \"rb\") as file:\n",
    "                raw_data = file.read()\n",
    "\n",
    "            # Get the dimensions of the image\n",
    "            width, height = get_image_dimensions(raw_data)\n",
    "\n",
    "            # Create an image from the raw data\n",
    "            image = Image.frombytes(\"RGB\", (width, height), raw_data, \"raw\", \"RGB\", 0, 1)\n",
    "\n",
    "            # Save the image as a JPEG file\n",
    "            jpg_filename = os.path.splitext(filename)[0] + \".jpg\"\n",
    "            jpg_filepath = os.path.join(jpg_directory, jpg_filename)\n",
    "            image.save(jpg_filepath, \"JPEG\")\n",
    "\n",
    "def get_image_dimensions(raw_data):\n",
    "    # Modify this logic based on your raw data format\n",
    "    # For example, if your raw data includes width and height information in the header,\n",
    "    # you would extract those values here.\n",
    "    # For demonstration purposes, let's assume a fixed size of 768x1152 pixels.\n",
    "    width = 768\n",
    "    height = 1152\n",
    "    return width, height\n",
    "\n",
    "# Example usage\n",
    "raw_directory_path = \"/mnt/HDD500/0WORKSHOP-with-NOTEBOOKS/saved_pages/AI_Celebrities_raw\"\n",
    "restore_raw_to_jpg(raw_directory_path)\n"
   ]
  },
  {
   "cell_type": "code",
   "execution_count": null,
   "id": "6d198f5d",
   "metadata": {},
   "outputs": [],
   "source": [
    "/mnt/HDD500/0WORKSHOP-with-NOTEBOOKS/saved_pages/AI_Celebrities_raw_restored/2023-05-17-12-09-40-369902.jpg"
   ]
  },
  {
   "cell_type": "code",
   "execution_count": null,
   "id": "2b12019b",
   "metadata": {},
   "outputs": [],
   "source": [
    "# Get the current date and time\n",
    "current_datetime=$(date +\"%Y-%m-%d_%H-%M-%S\")\n",
    "# Create a filename with the current date and time\n",
    "filename=\"EXPERIMENT/_file_${current_datetime}.mp4\"\n",
    "VIDEO=EXPERIMENT/Mixed_Images-5.mp4\n",
    "OUTPUT=EXPERIMENT/Set-5.mp4\n",
    "#DIR=\"/mnt/HDD500/collections/newdownloads/512x512/\"\n",
    "#DIR=/mnt/HDD500/collections/newdownloads/Discover_and_Generate_AI_Art_OpenArt_files/\n",
    "DIR=\"/mnt/HDD500/0WORKSHOP-with-NOTEBOOKS/saved_pages/AI_Celebrities_raw_restored/\"\n",
    "#DIR=\"/mnt/HDD500/collections/gypsy_files/\"\n",
    "#DIR=\"/mnt/HDD500/collections/art-nouveau/\"\n",
    "#DIR=/mnt/HDD500/collections/640x640-alien/\n",
    "#DIR=\"/mnt/HDD500/0WORKSHOP-with-NOTEBOOKS/saved_pages/leonardo-nouveau/\"\n",
    "#DIR=\"/mnt/HDD500/0WORKSHOP-with-NOTEBOOKS/saved_pages/Brown-N-Gold/\"\n",
    "# ---DIR=\"/mnt/HDD500/collections/512x768_pop-art/\"\n",
    "#DIR=/mnt/HDD500/collections/alien/Lexicasearch_results_files/\n",
    "#DIR=\"/mnt/HDD500/collections/alien/life/monsters/alien_plant_life/\"\n",
    "#DIR=\"/mnt/HDD500/collections/alien/life/plant/Lexica_files/\"\n",
    "#DIR=\"/mnt/HDD500/collections/alien_flowers/\"\n",
    "VIDEOS=\"EXPERIMENT/XXXX1.mp4\"\n",
    "directory_name=$(basename \"${DIR}\")\n",
    "# Find all JPG files in the directory\n",
    "jpg_files=(\"${DIR}\"*.jpg)\n",
    "# Get the total number of JPG files\n",
    "num_files=${#jpg_files[@]}\n",
    "# Generate a random index\n",
    "random_index=$(( RANDOM % num_files ))\n",
    "# Select the random file\n",
    "random_file=\"${jpg_files[random_index]}\"\n",
    "# Apply the text overlay on the random image\n",
    "ffmpeg -hide_banner -i \"${random_file}\" -vf \"drawtext=text='${directory_name}':fontfile=/home/jack/fonts/freesansbold.ttf:fontsize=45:fontcolor=white:x=(w-text_w)/2:y=(h-text_h)/2\" -y EXPERIMENT/result_image_with_text.jpg\n",
    "# Get the directory name\n",
    "#directory_name=$(basename \"${DIR}\")\n",
    "# Find all JPG files in the directory\n",
    "jpg_files=(\"${DIR}\"*.jpg)\n",
    "# Get the total number of JPG files\n",
    "num_files=${#jpg_files[@]}\n",
    "# Generate a random index\n",
    "random_index=$(( RANDOM % num_files ))\n",
    "# Select the random file\n",
    "random_file=\"${jpg_files[random_index]}\"\n",
    "# Apply the text overlay on the random image\n",
    "ffmpeg -hide_banner -i \"${random_file}\" -vf \"drawtext=text='${directory_name}':fontfile=/home/jack/fonts/freesansbold.ttf:fontsize=45:fontcolor=white:x=(w-text_w)/2:y=(h-text_h)/2\" -y EXPERIMENT/result_image_with_text.jpg\n",
    "TITLEimage=\"EXPERIMENT/result_image_with_text.jpg\"\n",
    "# Use a glob pattern to match the image files in the directory\n",
    "file_list=(${DIR}*.jpg)\n",
    "# Shuffle the file list randomly\n",
    "shuffled_files=($(shuf -e \"${file_list[@]}\"))\n",
    "# Build the input argument for ffmpeg with the shuffled file list\n",
    "input_arg=\"\"\n",
    "for file in \"${shuffled_files[@]}\"; do\n",
    "  input_arg+=\" -loop 1 -t 00:00:00.2 -i ${file}\"\n",
    "done\n",
    "# Run ffmpeg with the shuffled file list\n",
    "ffmpeg -hide_banner ${input_arg} -filter_complex \"concat=n=${#shuffled_files[@]}:v=1:a=0\" -c:v libx264 -r 30 -pix_fmt yuv420p -t 58 -y ${VIDEOS}\n",
    "FINAL=\"EXPERIMENT/file_${current_datetime}.mp4\"\n",
    "MUSIC=/mnt/HDD500/collections/Music/Music-Copyright_Free_Music.mp3\n",
    "#ffmpeg -hide_banner -framerate 5 -i ${DIR}%05d.jpg -c:v libx264 -r 30 -pix_fmt yuv420p -y ${VIDEO}\n",
    "ffmpeg -hide_banner -i ${VIDEOS} -filter:v \"setpts=5*PTS,minterpolate='fps=25:scd=none:me_mode=bidir:vsbmc=1:search_param=200'\" -t 58 -y ${filename}\n",
    "ffmpeg -hide_banner -loop 1 -i EXPERIMENT/result_image_with_text.jpg -vf \"fade=t=in:st=0:d=1:alpha=1, fade=t=out:st=3:d=1:alpha=1\" -c:v libx264 -t 4 -y EXPERIMENT/result_image_with_text.mp4\n",
    "ffmpeg -i EXPERIMENT/result_image_with_text.mp4 -i ${filename} -filter_complex \"[0:v] [1:v] concat=n=2:v=1:a=0 [v]\" -map \"[v]\" -t 59 -y EXPERIMENT/titled.mp4\n",
    "random_number=$(( RANDOM % 3000 + 100 ))\n",
    "ffmpeg -ss 0 -i EXPERIMENT/titled.mp4 -ss ${random_number} -i ${MUSIC} -map 0:v -map 1:a -c:v copy -c:a aac -shortest -y ${FINAL}\n",
    "vlc ${FINAL}"
   ]
  },
  {
   "cell_type": "code",
   "execution_count": null,
   "id": "de61f414",
   "metadata": {},
   "outputs": [],
   "source": [
    "/home/jack/Desktop/HDD500/collections/absrtact/0f359ada-5089-4f2c-aaa5-03500a107dd2\n"
   ]
  },
  {
   "cell_type": "code",
   "execution_count": null,
   "id": "b5378217",
   "metadata": {},
   "outputs": [],
   "source": [
    "ffmpeg -hide_banner -i \"${random_file}\" -vf \"drawtext=text='${directory_name}':fontfile=/home/jack/fonts/freesansbold.ttf:fontsize=45:fontcolor=white:x=(w-text_w)/2:y=(h-text_h)/2\" -y EXPERIMENT/result_image_with_text.jpg"
   ]
  },
  {
   "cell_type": "code",
   "execution_count": null,
   "id": "34c05ac6",
   "metadata": {},
   "outputs": [],
   "source": [
    "ffmpeg -hide_banner -i \"${random_file}\" -vf \"drawtext=text='${directory_name}':fontfile=/home/jack/fonts/freesansbold.ttf:fontsize=45:fontcolor=white:x=(w-text_w)/2:y=(h-text_h)/2\" -y EXPERIMENT/result_image_with_text.jpg"
   ]
  },
  {
   "cell_type": "code",
   "execution_count": null,
   "id": "4b01ab35",
   "metadata": {},
   "outputs": [],
   "source": [
    "directory_name=\"TEST\"\n",
    "ffmpeg -hide_banner -f lavfi -i \"color=c=darkred:s=1920x1080:d=4\" -vf \"fade=t=in:st=0:d=1:alpha=1, fade=t=out:st=3:d=1:alpha=1, format=yuv420p[v]; movie=/home/jack/fonts/freesansbold.ttf, drawtext=text='${directory_name}':fontsize=45:fontcolor=white:x=(w-text_w)/2:y=(h-text_h)/2, fade=t=in:st=0:d=1:alpha=1, fade=t=out:st=3:d=1:alpha=1[txt]; [v][txt]overlay\" -c:v libx264 -t 5 -y EXPERIMENT/result_image_with_text.mp4\n",
    "\n",
    "vlc EXPERIMENT/result_image_with_text1.mp4"
   ]
  },
  {
   "cell_type": "code",
   "execution_count": null,
   "id": "88262e00",
   "metadata": {},
   "outputs": [],
   "source": [
    "ls /home/jack/fonts/freesansbold.ttf\n",
    ">>>/home/jack/fonts/freesansbold.ttf"
   ]
  },
  {
   "cell_type": "code",
   "execution_count": null,
   "id": "e6858494",
   "metadata": {},
   "outputs": [],
   "source": [
    "directory_name=\"TEST\"\n",
    "font=\"/home/jack/fonts/freesansbold.ttf\"\n",
    "ffmpeg -hide_banner -f lavfi -i \"color=c=darkred:s=1920x1080:d=4\" -loop 1 -i \"drawtext=text='${directory_name}':fontfile=${font}:fontsize=45:fontcolor=white:x=(w-text_w)/2:y=(h-text_h)/2\" -filter_complex \"[0:v][1:v]concat=n=2:v=1:a=0[output]\" -map \"[output]\" -vf \"fade=t=in:st=0:d=1:alpha=1, fade=t=out:st=3:d=1:alpha=1\" -c:v libx264 -t 4 -y /path/to/EXPERIMENT/result_image_with_text.mp4\n"
   ]
  },
  {
   "cell_type": "code",
   "execution_count": null,
   "id": "8af4b675",
   "metadata": {},
   "outputs": [],
   "source": [
    "!ls /home/jack/fonts/*.ttf"
   ]
  },
  {
   "cell_type": "code",
   "execution_count": 20,
   "id": "42e330df",
   "metadata": {},
   "outputs": [],
   "source": [
    "DIR=\"/mnt/HDD500/collections/verified/\"\n",
    "# +DIR=\"/mnt/HDD500/TENSORFLOW/A-workinprogress/\"\n",
    "# +DIR=\"/mnt/HDD500/collections/images/\"\n",
    "# +DIR=\"/mnt/HDD500/collections/jungle/exotic_lithograph_prints-Playground_AI_files/512x768/\"\n",
    "# +DIR=\"/mnt/HDD500/0WORKSHOP-with-NOTEBOOKS/400x600-YH/\"\n",
    "VIDEOS=\"EXPERIMENT/XXXX1.mp4\"\n",
    "directory_name=$(basename \"${DIR}\")\n",
    "# Find all JPG files in the directory\n",
    "jpg_files=(\"${DIR}\"*.jpg)\n",
    "# Get the total number of JPG files\n",
    "num_files=${#jpg_files[@]}\n",
    "# Generate a random index\n",
    "random_index=$(( RANDOM % num_files ))\n",
    "# Select the random file\n",
    "random_file=\"${jpg_files[random_index]}\""
   ]
  },
  {
   "cell_type": "code",
   "execution_count": 21,
   "id": "c900a560",
   "metadata": {},
   "outputs": [
    {
     "name": "stdout",
     "output_type": "stream",
     "text": [
      "/mnt/HDD500/collections/verified/bb617d59-6c11-45da-91e3-dc29c2bb7191.jpg\n"
     ]
    }
   ],
   "source": [
    "echo ${random_file}"
   ]
  },
  {
   "cell_type": "code",
   "execution_count": null,
   "id": "ca80944d",
   "metadata": {},
   "outputs": [],
   "source": [
    "random_file=\"/mnt/HDD500/collections/verified/bb617d59-6c11-45da-91e3-dc29c2bb7191.jpg\""
   ]
  },
  {
   "cell_type": "code",
   "execution_count": 25,
   "id": "ca83260b",
   "metadata": {},
   "outputs": [
    {
     "name": "stdout",
     "output_type": "stream",
     "text": [
      "Input #0, lavfi, from 'color=black:s=512x512:d=10':\n",
      "  Duration: N/A, start: 0.000000, bitrate: N/A\n",
      "    Stream #0:0: Video: rawvideo (I420 / 0x30323449), yuv420p, 512x512 [SAR 1:1 DAR 1:1], 25 tbr, 25 tbn, 25 tbc\n",
      "Input #1, image2, from '/mnt/HDD500/collections/verified/bb617d59-6c11-45da-91e3-dc29c2bb7191.jpg':\n",
      "  Duration: 00:00:00.04, start: 0.000000, bitrate: 3811 kb/s\n",
      "    Stream #1:0: Video: mjpeg (Baseline), yuvj420p(pc, bt470bg/unknown/unknown), 512x512 [SAR 1:1 DAR 1:1], 25 tbr, 25 tbn, 25 tbc\n",
      "Stream mapping:\n",
      "  Stream #0:0 (rawvideo) -> overlay:main\n",
      "  Stream #1:0 (mjpeg) -> overlay:overlay\n",
      "  fade -> Stream #0:0 (libx264)\n",
      "Press [q] to stop, [?] for help\n",
      "\u001b[48;5;0m\u001b[38;5;153m[swscaler @ 0x55bb3afa4700] \u001b[0m\u001b[48;5;0m\u001b[38;5;226mdeprecated pixel format used, make sure you did set range correctly\n",
      "\u001b[0m\u001b[48;5;0m\u001b[38;5;51m[libx264 @ 0x55bb3af5b240] \u001b[0musing SAR=1/1\n",
      "\u001b[48;5;0m\u001b[38;5;51m[libx264 @ 0x55bb3af5b240] \u001b[0musing cpu capabilities: MMX2 SSE2Fast LZCNT SSSE3 SSE4.2\n",
      "\u001b[48;5;0m\u001b[38;5;51m[libx264 @ 0x55bb3af5b240] \u001b[0mprofile High, level 3.0\n",
      "\u001b[48;5;0m\u001b[38;5;51m[libx264 @ 0x55bb3af5b240] \u001b[0m264 - core 155 r2917 0a84d98 - H.264/MPEG-4 AVC codec - Copyleft 2003-2018 - http://www.videolan.org/x264.html - options: cabac=1 ref=3 deblock=1:0:0 analyse=0x3:0x113 me=hex subme=7 psy=1 psy_rd=1.00:0.00 mixed_ref=1 me_range=16 chroma_me=1 trellis=1 8x8dct=1 cqm=0 deadzone=21,11 fast_pskip=1 chroma_qp_offset=-2 threads=3 lookahead_threads=1 sliced_threads=0 nr=0 decimate=1 interlaced=0 bluray_compat=0 constrained_intra=0 bframes=3 b_pyramid=2 b_adapt=1 b_bias=0 direct=1 weightb=1 open_gop=0 weightp=2 keyint=250 keyint_min=25 scenecut=40 intra_refresh=0 rc_lookahead=40 rc=crf mbtree=1 crf=23.0 qcomp=0.60 qpmin=0 qpmax=69 qpstep=4 ip_ratio=1.40 aq=1:1.00\n",
      "Output #0, mp4, to 'EXPERIMENT/result_image_with_text.mp4':\n",
      "  Metadata:\n",
      "    encoder         : Lavf58.29.100\n",
      "    Stream #0:0: Video: h264 (libx264) (avc1 / 0x31637661), yuv420p, 512x512 [SAR 1:1 DAR 1:1], q=-1--1, 25 fps, 12800 tbn, 25 tbc (default)\n",
      "    Metadata:\n",
      "      encoder         : Lavc58.54.100 libx264\n",
      "    Side data:\n",
      "      cpb: bitrate max/min/avg: 0/0/0 buffer size: 0 vbv_delay: -1\n",
      "\u001b[48;5;0m\u001b[38;5;155m[Parsed_color_0 @ 0x55bb3af2a200] \u001b[0m\u001b[48;5;0m\u001b[38;5;226mEOF timestamp not reliable\n",
      "\u001b[0mframe=  250 fps= 29 q=-1.0 Lsize=      35kB time=00:00:09.88 bitrate=  28.9kbits/s speed=1.15x    \n",
      "video:31kB audio:0kB subtitle:0kB other streams:0kB global headers:0kB muxing overhead: 12.041392%\n",
      "\u001b[48;5;0m\u001b[38;5;51m[libx264 @ 0x55bb3af5b240] \u001b[0mframe I:2     Avg QP:11.61  size: 12948\n",
      "\u001b[48;5;0m\u001b[38;5;51m[libx264 @ 0x55bb3af5b240] \u001b[0mframe P:63    Avg QP:14.57  size:    28\n",
      "\u001b[48;5;0m\u001b[38;5;51m[libx264 @ 0x55bb3af5b240] \u001b[0mframe B:185   Avg QP:18.58  size:    19\n",
      "\u001b[48;5;0m\u001b[38;5;51m[libx264 @ 0x55bb3af5b240] \u001b[0mconsecutive B-frames:  1.2%  0.0%  1.2% 97.6%\n",
      "\u001b[48;5;0m\u001b[38;5;51m[libx264 @ 0x55bb3af5b240] \u001b[0mmb I  I16..4: 60.4% 36.3%  3.4%\n",
      "\u001b[48;5;0m\u001b[38;5;51m[libx264 @ 0x55bb3af5b240] \u001b[0mmb P  I16..4:  0.0%  0.0%  0.0%  P16..4:  0.0%  0.0%  0.0%  0.0%  0.0%    skip:99.9%\n",
      "\u001b[48;5;0m\u001b[38;5;51m[libx264 @ 0x55bb3af5b240] \u001b[0mmb B  I16..4:  0.0%  0.0%  0.0%  B16..8:  0.0%  0.0%  0.0%  direct: 0.0%  skip:100.0%  L0:33.3% L1:66.7% BI: 0.0%\n",
      "\u001b[48;5;0m\u001b[38;5;51m[libx264 @ 0x55bb3af5b240] \u001b[0m8x8 transform intra:35.9% inter:0.0%\n",
      "\u001b[48;5;0m\u001b[38;5;51m[libx264 @ 0x55bb3af5b240] \u001b[0mcoded y,uvDC,uvAC intra: 33.9% 42.9% 34.4% inter: 0.0% 0.0% 0.0%\n",
      "\u001b[48;5;0m\u001b[38;5;51m[libx264 @ 0x55bb3af5b240] \u001b[0mi16 v,h,dc,p: 89%  4%  6%  1%\n",
      "\u001b[48;5;0m\u001b[38;5;51m[libx264 @ 0x55bb3af5b240] \u001b[0mi8 v,h,dc,ddl,ddr,vr,hd,vl,hu: 26% 17% 27%  6%  4%  4%  3%  6%  7%\n",
      "\u001b[48;5;0m\u001b[38;5;51m[libx264 @ 0x55bb3af5b240] \u001b[0mi4 v,h,dc,ddl,ddr,vr,hd,vl,hu: 45% 26%  8%  3%  6%  4%  4%  2%  3%\n",
      "\u001b[48;5;0m\u001b[38;5;51m[libx264 @ 0x55bb3af5b240] \u001b[0mi8c dc,h,v,p: 68% 11% 15%  7%\n",
      "\u001b[48;5;0m\u001b[38;5;51m[libx264 @ 0x55bb3af5b240] \u001b[0mWeighted P-Frames: Y:1.6% UV:1.6%\n",
      "\u001b[48;5;0m\u001b[38;5;51m[libx264 @ 0x55bb3af5b240] \u001b[0mkb/s:24.96\n",
      "VLC media player 3.0.11.1 Vetinari (revision 3.0.11.1-0-g52483f3ca2)\n",
      "[\u001b[32;1m0000000001fc20c0\u001b[0m] main libvlc: \u001b[0;1mRunning vlc with the default interface. Use 'cvlc' to use vlc without interface.\u001b[0m\n",
      "libva info: VA-API version 0.39.0\n",
      "libva info: va_getDriverName() returns 0\n",
      "libva info: Trying to open /usr/lib/x86_64-linux-gnu/dri/nouveau_drv_video.so\n",
      "libva error: /usr/lib/x86_64-linux-gnu/dri/nouveau_drv_video.so has no function __vaDriverInit_0_32\n",
      "libva info: va_openDriver() returns -1\n",
      "[\u001b[32;1m00007f6660001840\u001b[0m] glconv_vaapi_x11 gl error: \u001b[31;1mvaInitialize: unknown libva error\u001b[0m\n",
      "libva info: VA-API version 0.39.0\n",
      "libva info: va_getDriverName() returns 0\n",
      "libva info: Trying to open /usr/lib/x86_64-linux-gnu/dri/gallium_drv_video.so\n",
      "libva info: va_openDriver() returns -1\n",
      "[\u001b[32;1m00007f6660001840\u001b[0m] glconv_vaapi_drm gl error: \u001b[31;1mvaInitialize: unknown libva error\u001b[0m\n",
      "libva info: VA-API version 0.39.0\n",
      "libva info: va_getDriverName() returns 0\n",
      "libva info: Trying to open /usr/lib/x86_64-linux-gnu/dri/gallium_drv_video.so\n",
      "libva info: va_openDriver() returns -1\n",
      "[\u001b[32;1m00007f6660001840\u001b[0m] glconv_vaapi_drm gl error: \u001b[31;1mvaInitialize: unknown libva error\u001b[0m\n",
      "[\u001b[32;1m00007f667cc19340\u001b[0m] avcodec decoder: \u001b[0;1mUsing G3DVL VDPAU Driver Shared Library version 1.0 for hardware decoding\u001b[0m\n",
      "\u001b[48;5;0m\u001b[38;5;39m[h264 @ 0x7f667cc15400] \u001b[0m\u001b[48;5;0m\u001b[38;5;196mFailed setup for format vdpau: hwaccel initialisation returned error.\n",
      "\u001b[0m[\u001b[32;1m00007f667cc19340\u001b[0m] avcodec decoder error: \u001b[31;1mexisting hardware acceleration cannot be reused\u001b[0m\n",
      "libva info: VA-API version 0.39.0\n",
      "libva info: va_getDriverName() returns 0\n",
      "libva info: Trying to open /usr/lib/x86_64-linux-gnu/dri/nouveau_drv_video.so\n",
      "libva error: /usr/lib/x86_64-linux-gnu/dri/nouveau_drv_video.so has no function __vaDriverInit_0_32\n",
      "libva info: va_openDriver() returns -1\n",
      "[\u001b[32;1m00007f66607666b0\u001b[0m] glconv_vaapi_x11 gl error: \u001b[31;1mvaInitialize: unknown libva error\u001b[0m\n",
      "libva info: VA-API version 0.39.0\n",
      "libva info: va_getDriverName() returns 0\n",
      "libva info: Trying to open /usr/lib/x86_64-linux-gnu/dri/gallium_drv_video.so\n",
      "libva info: va_openDriver() returns -1\n",
      "[\u001b[32;1m00007f66607666b0\u001b[0m] glconv_vaapi_drm gl error: \u001b[31;1mvaInitialize: unknown libva error\u001b[0m\n",
      "libva info: VA-API version 0.39.0\n",
      "libva info: va_getDriverName() returns 0\n",
      "libva info: Trying to open /usr/lib/x86_64-linux-gnu/dri/gallium_drv_video.so\n",
      "libva info: va_openDriver() returns -1\n",
      "[\u001b[32;1m00007f66607666b0\u001b[0m] glconv_vaapi_drm gl error: \u001b[31;1mvaInitialize: unknown libva error\u001b[0m\n",
      "QObject::~QObject: Timers cannot be stopped from another thread\n"
     ]
    }
   ],
   "source": [
    "#random_file=\"image.jpg\"\n",
    "directory_name=\"TEST\"\n",
    "font=\"/home/jack/fonts/Bitter-Bold.ttf\"\n",
    "input_width=$(ffprobe -v error -select_streams v:0 -show_entries stream=width -of csv=p=0 \"$random_file\")\n",
    "input_height=$(ffprobe -v error -select_streams v:0 -show_entries stream=height -of csv=p=0 \"$random_file\")\n",
    "ffmpeg -hide_banner -f lavfi -i \"color=black:s=${input_width}x${input_height}:d=10\" -i \"$random_file\" -filter_complex \"[0:v][1:v]overlay=(main_w-overlay_w)/2:(main_h-overlay_h)/2:enable='between(t,2,8)'[out];[out]drawtext=text='${directory_name}':fontfile=${font}:fontsize=50:fontcolor=white:x=(w-text_w)/2:y=(h-text_h)/2:enable='between(t,2,8)',fade=t=in:st=2:d=1:alpha=1,fade=t=out:st=7:d=1:alpha=1\" -c:v libx264 -t 10 -y EXPERIMENT/result_image_with_text.mp4\n",
    "vlc EXPERIMENT/result_image_with_text.mp4\n",
    "\n"
   ]
  },
  {
   "cell_type": "code",
   "execution_count": 24,
   "id": "17e5fcb7",
   "metadata": {},
   "outputs": [
    {
     "name": "stdout",
     "output_type": "stream",
     "text": [
      "Input #0, image2, from '/mnt/HDD500/collections/verified/bb617d59-6c11-45da-91e3-dc29c2bb7191.jpg':\n",
      "  Duration: 00:00:00.04, start: 0.000000, bitrate: 3811 kb/s\n",
      "    Stream #0:0: Video: mjpeg (Baseline), yuvj420p(pc, bt470bg/unknown/unknown), 512x512 [SAR 1:1 DAR 1:1], 25 tbr, 25 tbn, 25 tbc\n",
      "\u001b[48;5;0m\u001b[38;5;208mInvalid file index 1 in filtergraph description [0:v][1:v]overlay=(main_w-overlay_w)/2:(main_h-overlay_h)/2:enable='between(t,1,9)'[out].\n",
      "\u001b[0m\n",
      "VLC media player 3.0.11.1 Vetinari (revision 3.0.11.1-0-g52483f3ca2)\n",
      "[\u001b[32;1m0000000001f0e0c0\u001b[0m] main libvlc: \u001b[0;1mRunning vlc with the default interface. Use 'cvlc' to use vlc without interface.\u001b[0m\n",
      "libva info: VA-API version 0.39.0\n",
      "libva info: va_getDriverName() returns 0\n",
      "libva info: Trying to open /usr/lib/x86_64-linux-gnu/dri/nouveau_drv_video.so\n",
      "libva error: /usr/lib/x86_64-linux-gnu/dri/nouveau_drv_video.so has no function __vaDriverInit_0_32\n",
      "libva info: va_openDriver() returns -1\n",
      "[\u001b[32;1m00007f7120001840\u001b[0m] glconv_vaapi_x11 gl error: \u001b[31;1mvaInitialize: unknown libva error\u001b[0m\n",
      "libva info: VA-API version 0.39.0\n",
      "libva info: va_getDriverName() returns 0\n",
      "libva info: Trying to open /usr/lib/x86_64-linux-gnu/dri/gallium_drv_video.so\n",
      "libva info: va_openDriver() returns -1\n",
      "[\u001b[32;1m00007f7120001840\u001b[0m] glconv_vaapi_drm gl error: \u001b[31;1mvaInitialize: unknown libva error\u001b[0m\n",
      "libva info: VA-API version 0.39.0\n",
      "libva info: va_getDriverName() returns 0\n",
      "libva info: Trying to open /usr/lib/x86_64-linux-gnu/dri/gallium_drv_video.so\n",
      "libva info: va_openDriver() returns -1\n",
      "[\u001b[32;1m00007f7120001840\u001b[0m] glconv_vaapi_drm gl error: \u001b[31;1mvaInitialize: unknown libva error\u001b[0m\n",
      "[\u001b[32;1m00007f7134c07cc0\u001b[0m] avcodec decoder: \u001b[0;1mUsing G3DVL VDPAU Driver Shared Library version 1.0 for hardware decoding\u001b[0m\n",
      "\u001b[48;5;0m\u001b[38;5;39m[h264 @ 0x7f7134c1d1c0] \u001b[0m\u001b[48;5;0m\u001b[38;5;196mFailed setup for format vdpau: hwaccel initialisation returned error.\n",
      "\u001b[0m[\u001b[32;1m00007f7134c07cc0\u001b[0m] avcodec decoder error: \u001b[31;1mexisting hardware acceleration cannot be reused\u001b[0m\n",
      "libva info: VA-API version 0.39.0\n",
      "libva info: va_getDriverName() returns 0\n",
      "libva info: Trying to open /usr/lib/x86_64-linux-gnu/dri/nouveau_drv_video.so\n",
      "libva error: /usr/lib/x86_64-linux-gnu/dri/nouveau_drv_video.so has no function __vaDriverInit_0_32\n",
      "libva info: va_openDriver() returns -1\n",
      "[\u001b[32;1m00007f71207676a0\u001b[0m] glconv_vaapi_x11 gl error: \u001b[31;1mvaInitialize: unknown libva error\u001b[0m\n",
      "libva info: VA-API version 0.39.0\n",
      "libva info: va_getDriverName() returns 0\n",
      "libva info: Trying to open /usr/lib/x86_64-linux-gnu/dri/gallium_drv_video.so\n",
      "libva info: va_openDriver() returns -1\n",
      "[\u001b[32;1m00007f71207676a0\u001b[0m] glconv_vaapi_drm gl error: \u001b[31;1mvaInitialize: unknown libva error\u001b[0m\n",
      "libva info: VA-API version 0.39.0\n",
      "libva info: va_getDriverName() returns 0\n",
      "libva info: Trying to open /usr/lib/x86_64-linux-gnu/dri/gallium_drv_video.so\n",
      "libva info: va_openDriver() returns -1\n",
      "[\u001b[32;1m00007f71207676a0\u001b[0m] glconv_vaapi_drm gl error: \u001b[31;1mvaInitialize: unknown libva error\u001b[0m\n",
      "[\u001b[32;1m00007f7134c07cc0\u001b[0m] main decoder error: \u001b[31;1mbuffer deadlock prevented\u001b[0m\n",
      "QObject::~QObject: Timers cannot be stopped from another thread\n"
     ]
    }
   ],
   "source": [
    "\n",
    "directory_name=\"TEST\"\n",
    "font=\"/home/jack/fonts/Bitter-Bold.ttf\"\n",
    "ffmpeg -hide_banner -i \"${random_file}\" -filter_complex \"[0:v][1:v]overlay=(main_w-overlay_w)/2:(main_h-overlay_h)/2:enable='between(t,1,9)'[out]\" -vf \"drawtext=text='${directory_name}':fontfile=${font}:fontsize=50:fontcolor=white:x=(w-text_w)/2:y=(h-text_h)/2:enable='between(t,2,8)',fade=t=in:st=2:d=1:alpha=1,fade=t=out:st=7:d=1:alpha=1\" -c:v libx264 -t 10 -y EXPERIMENT/result_image_with_text.mp4\n",
    "vlc EXPERIMENT/result_image_with_text.mp4\n"
   ]
  },
  {
   "cell_type": "code",
   "execution_count": 6,
   "id": "5d41482f",
   "metadata": {},
   "outputs": [
    {
     "name": "stdout",
     "output_type": "stream",
     "text": [
      "Input #0, image2, from '/mnt/HDD500/collections/verified/7f2592b4-9e93-4a11-b8da-3b4b76244047.jpg':\n",
      "  Duration: 00:00:00.04, start: 0.000000, bitrate: 4259 kb/s\n",
      "    Stream #0:0: Video: mjpeg (Baseline), yuvj420p(pc, bt470bg/unknown/unknown), 512x512 [SAR 1:1 DAR 1:1], 25 tbr, 25 tbn, 25 tbc\n",
      "\u001b[48;5;0m\u001b[38;5;213m[NULL @ 0x55ebb88080c0] \u001b[0m\u001b[48;5;0m\u001b[38;5;196mUnable to find a suitable output format for 'loop'\n",
      "\u001b[0m\u001b[48;5;0m\u001b[38;5;196mloop: Invalid argument\n",
      "\u001b[0m\n",
      "VLC media player 3.0.11.1 Vetinari (revision 3.0.11.1-0-g52483f3ca2)\n",
      "[\u001b[32;1m0000000000b930c0\u001b[0m] main libvlc: \u001b[0;1mRunning vlc with the default interface. Use 'cvlc' to use vlc without interface.\u001b[0m\n",
      "libva info: VA-API version 0.39.0\n",
      "libva info: va_getDriverName() returns 0\n",
      "libva info: Trying to open /usr/lib/x86_64-linux-gnu/dri/nouveau_drv_video.so\n",
      "libva error: /usr/lib/x86_64-linux-gnu/dri/nouveau_drv_video.so has no function __vaDriverInit_0_32\n",
      "libva info: va_openDriver() returns -1\n",
      "[\u001b[32;1m00007f5cd8001840\u001b[0m] glconv_vaapi_x11 gl error: \u001b[31;1mvaInitialize: unknown libva error\u001b[0m\n",
      "libva info: VA-API version 0.39.0\n",
      "libva info: va_getDriverName() returns 0\n",
      "libva info: Trying to open /usr/lib/x86_64-linux-gnu/dri/gallium_drv_video.so\n",
      "libva info: va_openDriver() returns -1\n",
      "[\u001b[32;1m00007f5cd8001840\u001b[0m] glconv_vaapi_drm gl error: \u001b[31;1mvaInitialize: unknown libva error\u001b[0m\n",
      "libva info: VA-API version 0.39.0\n",
      "libva info: va_getDriverName() returns 0\n",
      "libva info: Trying to open /usr/lib/x86_64-linux-gnu/dri/gallium_drv_video.so\n",
      "libva info: va_openDriver() returns -1\n",
      "[\u001b[32;1m00007f5cd8001840\u001b[0m] glconv_vaapi_drm gl error: \u001b[31;1mvaInitialize: unknown libva error\u001b[0m\n",
      "[\u001b[32;1m00007f5cecc114e0\u001b[0m] avcodec decoder: \u001b[0;1mUsing G3DVL VDPAU Driver Shared Library version 1.0 for hardware decoding\u001b[0m\n",
      "\u001b[48;5;0m\u001b[38;5;39m[h264 @ 0x7f5cecc13e00] \u001b[0m\u001b[48;5;0m\u001b[38;5;196mFailed setup for format vdpau: hwaccel initialisation returned error.\n",
      "\u001b[0m[\u001b[32;1m00007f5cecc114e0\u001b[0m] avcodec decoder error: \u001b[31;1mexisting hardware acceleration cannot be reused\u001b[0m\n",
      "libva info: VA-API version 0.39.0\n",
      "libva info: va_getDriverName() returns 0\n",
      "libva info: Trying to open /usr/lib/x86_64-linux-gnu/dri/nouveau_drv_video.so\n",
      "libva error: /usr/lib/x86_64-linux-gnu/dri/nouveau_drv_video.so has no function __vaDriverInit_0_32\n",
      "libva info: va_openDriver() returns -1\n",
      "[\u001b[32;1m00007f5cd8766660\u001b[0m] glconv_vaapi_x11 gl error: \u001b[31;1mvaInitialize: unknown libva error\u001b[0m\n",
      "libva info: VA-API version 0.39.0\n",
      "libva info: va_getDriverName() returns 0\n",
      "libva info: Trying to open /usr/lib/x86_64-linux-gnu/dri/gallium_drv_video.so\n",
      "libva info: va_openDriver() returns -1\n",
      "[\u001b[32;1m00007f5cd8766660\u001b[0m] glconv_vaapi_drm gl error: \u001b[31;1mvaInitialize: unknown libva error\u001b[0m\n",
      "libva info: VA-API version 0.39.0\n",
      "libva info: va_getDriverName() returns 0\n",
      "libva info: Trying to open /usr/lib/x86_64-linux-gnu/dri/gallium_drv_video.so\n",
      "libva info: va_openDriver() returns -1\n",
      "[\u001b[32;1m00007f5cd8766660\u001b[0m] glconv_vaapi_drm gl error: \u001b[31;1mvaInitialize: unknown libva error\u001b[0m\n",
      "QObject::~QObject: Timers cannot be stopped from another thread\n"
     ]
    }
   ],
   "source": [
    "random_file=\"image.jpg\"\n",
    "directory_name=\"TEST\"\n",
    "font=\"/home/jack/fonts/Bitter-Bold.ttf\"\n",
    "ffmpeg -hide_banner -i ${random_file} -filter_complex \"[0:v]split=2[bg][txt];[bg]fade=t=in:st=0:d=1:alpha=1,fade=t=out:st=3:d=1:alpha=1[bg];[txt]drawtext=text='${directory_name}':fontfile=${font}:fontsize=50:fontcolor=black:x=(w-text_w)/2:y=(h-text_h)/2,fade=t=in:st=0:d=2:alpha=1,fade=t=out:st=2:d=2:alpha=1[txt];[bg][txt]overlay\" -c:v libx264 -t 10 -y EXPERIMENT/result_image_with_text.mp4\n",
    "vlc EXPERIMENT/result_image_with_text.mp4"
   ]
  },
  {
   "cell_type": "code",
   "execution_count": 5,
   "id": "765aa7ad",
   "metadata": {},
   "outputs": [
    {
     "name": "stdout",
     "output_type": "stream",
     "text": [
      "Input #0, lavfi, from 'color=c=darkred:s=512x512:d=4':\n",
      "  Duration: N/A, start: 0.000000, bitrate: N/A\n",
      "    Stream #0:0: Video: rawvideo (I420 / 0x30323449), yuv420p, 512x512 [SAR 1:1 DAR 1:1], 25 tbr, 25 tbn, 25 tbc\n",
      "Stream mapping:\n",
      "  Stream #0:0 (rawvideo) -> split\n",
      "  overlay -> Stream #0:0 (libx264)\n",
      "Press [q] to stop, [?] for help\n",
      "\u001b[48;5;0m\u001b[38;5;51m[libx264 @ 0x55ba3e1d4700] \u001b[0musing SAR=1/1\n",
      "\u001b[48;5;0m\u001b[38;5;51m[libx264 @ 0x55ba3e1d4700] \u001b[0musing cpu capabilities: MMX2 SSE2Fast LZCNT SSSE3 SSE4.2\n",
      "\u001b[48;5;0m\u001b[38;5;51m[libx264 @ 0x55ba3e1d4700] \u001b[0mprofile High, level 3.0\n",
      "\u001b[48;5;0m\u001b[38;5;51m[libx264 @ 0x55ba3e1d4700] \u001b[0m264 - core 155 r2917 0a84d98 - H.264/MPEG-4 AVC codec - Copyleft 2003-2018 - http://www.videolan.org/x264.html - options: cabac=1 ref=3 deblock=1:0:0 analyse=0x3:0x113 me=hex subme=7 psy=1 psy_rd=1.00:0.00 mixed_ref=1 me_range=16 chroma_me=1 trellis=1 8x8dct=1 cqm=0 deadzone=21,11 fast_pskip=1 chroma_qp_offset=-2 threads=3 lookahead_threads=1 sliced_threads=0 nr=0 decimate=1 interlaced=0 bluray_compat=0 constrained_intra=0 bframes=3 b_pyramid=2 b_adapt=1 b_bias=0 direct=1 weightb=1 open_gop=0 weightp=2 keyint=250 keyint_min=25 scenecut=40 intra_refresh=0 rc_lookahead=40 rc=crf mbtree=1 crf=23.0 qcomp=0.60 qpmin=0 qpmax=69 qpstep=4 ip_ratio=1.40 aq=1:1.00\n",
      "Output #0, mp4, to 'EXPERIMENT/result_image_with_text.mp4':\n",
      "  Metadata:\n",
      "    encoder         : Lavf58.29.100\n",
      "    Stream #0:0: Video: h264 (libx264) (avc1 / 0x31637661), yuv420p, 512x512 [SAR 1:1 DAR 1:1], q=-1--1, 25 fps, 12800 tbn, 25 tbc\n",
      "    Metadata:\n",
      "      encoder         : Lavc58.54.100 libx264\n",
      "    Side data:\n",
      "      cpb: bitrate max/min/avg: 0/0/0 buffer size: 0 vbv_delay: -1\n",
      "\u001b[48;5;0m\u001b[38;5;155m[Parsed_color_0 @ 0x55ba3e1ab100] \u001b[0m\u001b[48;5;0m\u001b[38;5;226mEOF timestamp not reliable\n",
      "\u001b[0mframe=  100 fps=0.0 q=-1.0 Lsize=       7kB time=00:00:03.88 bitrate=  14.9kbits/s speed=4.97x    \n",
      "video:5kB audio:0kB subtitle:0kB other streams:0kB global headers:0kB muxing overhead: 39.620083%\n",
      "\u001b[48;5;0m\u001b[38;5;51m[libx264 @ 0x55ba3e1d4700] \u001b[0mframe I:1     Avg QP: 9.00  size:   105\n",
      "\u001b[48;5;0m\u001b[38;5;51m[libx264 @ 0x55ba3e1d4700] \u001b[0mframe P:25    Avg QP:13.09  size:   102\n",
      "\u001b[48;5;0m\u001b[38;5;51m[libx264 @ 0x55ba3e1d4700] \u001b[0mframe B:74    Avg QP:13.41  size:    25\n",
      "\u001b[48;5;0m\u001b[38;5;51m[libx264 @ 0x55ba3e1d4700] \u001b[0mconsecutive B-frames:  1.0%  0.0%  3.0% 96.0%\n",
      "\u001b[48;5;0m\u001b[38;5;51m[libx264 @ 0x55ba3e1d4700] \u001b[0mmb I  I16..4: 100.0%  0.0%  0.0%\n",
      "\u001b[48;5;0m\u001b[38;5;51m[libx264 @ 0x55ba3e1d4700] \u001b[0mmb P  I16..4:  3.8%  0.0%  0.1%  P16..4:  0.6%  0.0%  0.1%  0.0%  0.0%    skip:95.4%\n",
      "\u001b[48;5;0m\u001b[38;5;51m[libx264 @ 0x55ba3e1d4700] \u001b[0mmb B  I16..4:  0.0%  0.0%  0.0%  B16..8:  0.3%  0.0%  0.0%  direct: 0.0%  skip:99.7%  L0:31.2% L1:68.4% BI: 0.4%\n",
      "\u001b[48;5;0m\u001b[38;5;51m[libx264 @ 0x55ba3e1d4700] \u001b[0m8x8 transform intra:0.0% inter:32.0%\n",
      "\u001b[48;5;0m\u001b[38;5;51m[libx264 @ 0x55ba3e1d4700] \u001b[0mcoded y,uvDC,uvAC intra: 0.8% 1.5% 1.4% inter: 0.0% 0.1% 0.0%\n",
      "\u001b[48;5;0m\u001b[38;5;51m[libx264 @ 0x55ba3e1d4700] \u001b[0mi16 v,h,dc,p: 98%  0%  2%  0%\n",
      "\u001b[48;5;0m\u001b[38;5;51m[libx264 @ 0x55ba3e1d4700] \u001b[0mi8 v,h,dc,ddl,ddr,vr,hd,vl,hu:  0% 50% 25%  0%  0%  0% 25%  0%  0%\n",
      "\u001b[48;5;0m\u001b[38;5;51m[libx264 @ 0x55ba3e1d4700] \u001b[0mi4 v,h,dc,ddl,ddr,vr,hd,vl,hu: 44% 23% 21%  1%  3%  2%  3%  2%  2%\n",
      "\u001b[48;5;0m\u001b[38;5;51m[libx264 @ 0x55ba3e1d4700] \u001b[0mi8c dc,h,v,p: 99%  1%  0%  0%\n",
      "\u001b[48;5;0m\u001b[38;5;51m[libx264 @ 0x55ba3e1d4700] \u001b[0mWeighted P-Frames: Y:88.0% UV:88.0%\n",
      "\u001b[48;5;0m\u001b[38;5;51m[libx264 @ 0x55ba3e1d4700] \u001b[0mref P L0: 70.9%  0.1% 28.4%  0.0%  0.6%\n",
      "\u001b[48;5;0m\u001b[38;5;51m[libx264 @ 0x55ba3e1d4700] \u001b[0mref B L0: 92.8%  6.0%  1.2%\n",
      "\u001b[48;5;0m\u001b[38;5;51m[libx264 @ 0x55ba3e1d4700] \u001b[0mref B L1: 98.9%  1.1%\n",
      "\u001b[48;5;0m\u001b[38;5;51m[libx264 @ 0x55ba3e1d4700] \u001b[0mkb/s:8.94\n",
      "VLC media player 3.0.11.1 Vetinari (revision 3.0.11.1-0-g52483f3ca2)\n",
      "[\u001b[32;1m0000000001ee00c0\u001b[0m] main libvlc: \u001b[0;1mRunning vlc with the default interface. Use 'cvlc' to use vlc without interface.\u001b[0m\n",
      "libva info: VA-API version 0.39.0\n",
      "libva info: va_getDriverName() returns 0\n",
      "libva info: Trying to open /usr/lib/x86_64-linux-gnu/dri/nouveau_drv_video.so\n",
      "libva error: /usr/lib/x86_64-linux-gnu/dri/nouveau_drv_video.so has no function __vaDriverInit_0_32\n",
      "libva info: va_openDriver() returns -1\n",
      "[\u001b[32;1m00007f9afc001840\u001b[0m] glconv_vaapi_x11 gl error: \u001b[31;1mvaInitialize: unknown libva error\u001b[0m\n",
      "libva info: VA-API version 0.39.0\n",
      "libva info: va_getDriverName() returns 0\n",
      "libva info: Trying to open /usr/lib/x86_64-linux-gnu/dri/gallium_drv_video.so\n",
      "libva info: va_openDriver() returns -1\n",
      "[\u001b[32;1m00007f9afc001840\u001b[0m] glconv_vaapi_drm gl error: \u001b[31;1mvaInitialize: unknown libva error\u001b[0m\n",
      "libva info: VA-API version 0.39.0\n",
      "libva info: va_getDriverName() returns 0\n",
      "libva info: Trying to open /usr/lib/x86_64-linux-gnu/dri/gallium_drv_video.so\n",
      "libva info: va_openDriver() returns -1\n",
      "[\u001b[32;1m00007f9afc001840\u001b[0m] glconv_vaapi_drm gl error: \u001b[31;1mvaInitialize: unknown libva error\u001b[0m\n",
      "[\u001b[32;1m00007f9b0cc11b90\u001b[0m] avcodec decoder: \u001b[0;1mUsing G3DVL VDPAU Driver Shared Library version 1.0 for hardware decoding\u001b[0m\n",
      "\u001b[48;5;0m\u001b[38;5;39m[h264 @ 0x7f9b0cc1b740] \u001b[0m\u001b[48;5;0m\u001b[38;5;196mFailed setup for format vdpau: hwaccel initialisation returned error.\n",
      "\u001b[0m[\u001b[32;1m00007f9b0cc11b90\u001b[0m] avcodec decoder error: \u001b[31;1mexisting hardware acceleration cannot be reused\u001b[0m\n",
      "libva info: VA-API version 0.39.0\n",
      "libva info: va_getDriverName() returns 0\n",
      "libva info: Trying to open /usr/lib/x86_64-linux-gnu/dri/nouveau_drv_video.so\n",
      "libva error: /usr/lib/x86_64-linux-gnu/dri/nouveau_drv_video.so has no function __vaDriverInit_0_32\n",
      "libva info: va_openDriver() returns -1\n",
      "[\u001b[32;1m00007f9afc75e530\u001b[0m] glconv_vaapi_x11 gl error: \u001b[31;1mvaInitialize: unknown libva error\u001b[0m\n",
      "libva info: VA-API version 0.39.0\n",
      "libva info: va_getDriverName() returns 0\n",
      "libva info: Trying to open /usr/lib/x86_64-linux-gnu/dri/gallium_drv_video.so\n",
      "libva info: va_openDriver() returns -1\n",
      "[\u001b[32;1m00007f9afc75e530\u001b[0m] glconv_vaapi_drm gl error: \u001b[31;1mvaInitialize: unknown libva error\u001b[0m\n",
      "libva info: VA-API version 0.39.0\n",
      "libva info: va_getDriverName() returns 0\n",
      "libva info: Trying to open /usr/lib/x86_64-linux-gnu/dri/gallium_drv_video.so\n",
      "libva info: va_openDriver() returns -1\n",
      "[\u001b[32;1m00007f9afc75e530\u001b[0m] glconv_vaapi_drm gl error: \u001b[31;1mvaInitialize: unknown libva error\u001b[0m\n",
      "QObject::~QObject: Timers cannot be stopped from another thread\n"
     ]
    }
   ],
   "source": [
    "directory_name=\"TEST\"\n",
    "font=\"/home/jack/fonts/Bitter-Bold.ttf\"\n",
    "ffmpeg -hide_banner -f lavfi -i \"color=c=darkred:s=512x512:d=4\" -filter_complex \"[0:v]split=2[bg][txt];[bg]fade=t=in:st=0:d=1:alpha=1,fade=t=out:st=3:d=1:alpha=1[bg];[txt]drawtext=text='${directory_name}':fontfile=${font}:fontsize=50:fontcolor=black:x=(w-text_w)/2:y=(h-text_h)/2,fade=t=in:st=0:d=2:alpha=1,fade=t=out:st=2:d=2:alpha=1[txt];[bg][txt]overlay\" -c:v libx264 -t 10 -y EXPERIMENT/result_image_with_text.mp4\n",
    "vlc EXPERIMENT/result_image_with_text.mp4\n"
   ]
  },
  {
   "cell_type": "code",
   "execution_count": null,
   "id": "fad4c3a6",
   "metadata": {},
   "outputs": [],
   "source": [
    "directory_name=\"TEST\"\n",
    "font=\"/home/jack/fonts/Bitter-Bold.ttf\"\n",
    "ffmpeg -hide_banner -f lavfi -i \"color=c=darkred:s=512x512:d=4\" -vf \"drawtext=text='${directory_name}':fontfile=${font}:fontsize=50:fontcolor=black:x=(w-text_w)/2:y=(h-text_h)/2, fade=t=in:st=0:d=1:alpha=1, fade=t=out:st=3:d=1:alpha=1\" -c:v libx264 -t 4 -y EXPERIMENT/result_image_with_text.mp4\n",
    "vlc EXPERIMENT/result_image_with_text.mp4"
   ]
  },
  {
   "cell_type": "code",
   "execution_count": null,
   "id": "037e10d6",
   "metadata": {},
   "outputs": [],
   "source": [
    "directory_name=\"TEST\"\n",
    "ffmpeg -hide_banner -f lavfi -i \"color=c=darkred:s=1920x1080:d=4\" -loop 1 -i \"drawtext=text='${directory_name}':fontfile='/home/jack/fonts/freesansbold.ttf':fontsize=45:fontcolor=white:x=(w-text_w)/2:y=(h-text_h)/2\" -filter_complex \"[0:v][1:v]concat=n=2:v=1:a=0[output]\" -map \"[output]\" -vf \"fade=t=in:st=0:d=1:alpha=1, fade=t=out:st=3:d=1:alpha=1\" -c:v libx264 -t 4 -y EXPERIMENT/result_image_with_text.mp4\n",
    "vlc EXPERIMENT/result_image_with_text.mp4"
   ]
  },
  {
   "cell_type": "code",
   "execution_count": null,
   "id": "c840145d",
   "metadata": {},
   "outputs": [],
   "source": [
    "directory_name=\"TEST\"\n",
    "ffmpeg -hide_banner -f lavfi -i \"color=c=darkred:s=1920x1080:d=4\" -loop 1 -i \"drawtext=text='${directory_name}':fontfile=/home/jack/fonts/freesansbold.ttf:fontsize=45:fontcolor=white:x=(w-text_w)/2:y=(h-text_h)/2\"-filter_complex \"[0:v][1:v]concat=n=2:v=1:a=0[output]\" -map \"[output]\" -vf \"fade=t=in:st=0:d=1:alpha=1, fade=t=out:st=3:d=1:alpha=1\" -c:v libx264 -t 4 -y EXPERIMENT/result_image_with_text.mp4\n",
    "\n",
    "cvlc EXPERIMENT/result_image_with_text.mp4"
   ]
  },
  {
   "cell_type": "code",
   "execution_count": 35,
   "id": "c47b6dda",
   "metadata": {},
   "outputs": [
    {
     "name": "stdout",
     "output_type": "stream",
     "text": [
      "mkdir: cannot create directory ‘TTEMPP’: File exists\n",
      "Input #0, matroska,webm, from '/home/jack/Desktop/HDD500/complete-videos/640x640_splatter.mkv':\n",
      "  Metadata:\n",
      "    ENCODER         : Lavf58.29.100\n",
      "  Duration: 00:03:42.00, start: 0.000000, bitrate: 1262 kb/s\n",
      "    Stream #0:0: Video: h264 (High), yuv420p(progressive), 512x512, 1 fps, 1 tbr, 1k tbn, 2 tbc (default)\n",
      "    Metadata:\n",
      "      ENCODER         : Lavc58.54.100 libx264\n",
      "      DURATION        : 00:03:42.000000000\n",
      "Stream mapping:\n",
      "  Stream #0:0 -> #0:0 (h264 (native) -> mjpeg (native))\n",
      "Press [q] to stop, [?] for help\n",
      "\u001b[48;5;0m\u001b[38;5;155m[Parsed_select_0 @ 0x55ca7228a280] \u001b[0m\u001b[48;5;0m\u001b[38;5;250m[Eval @ 0x7ffe04319030] \u001b[0m\u001b[48;5;0m\u001b[38;5;196mUndefined constant or missing '(' in ')'\n",
      "\u001b[0m\u001b[48;5;0m\u001b[38;5;155m[Parsed_select_0 @ 0x55ca7228a280] \u001b[0m\u001b[48;5;0m\u001b[38;5;196mError while parsing expression 'gte(t,)'\n",
      "\u001b[0m\u001b[48;5;0m\u001b[38;5;155m[AVFilterGraph @ 0x55ca722897c0] \u001b[0m\u001b[48;5;0m\u001b[38;5;196mError initializing filter 'select'\u001b[0m\u001b[48;5;0m\u001b[38;5;196m with args 'gte(t,)'\u001b[0m\u001b[48;5;0m\u001b[38;5;196m\n",
      "\u001b[0m\u001b[48;5;0m\u001b[38;5;196mError reinitializing filters!\n",
      "\u001b[0m\u001b[48;5;0m\u001b[38;5;196mFailed to inject frame into filter network: Invalid argument\n",
      "\u001b[0m\u001b[48;5;0m\u001b[38;5;208mError while processing the decoded data for stream #0:0\n",
      "\u001b[0mConversion failed!\n"
     ]
    },
    {
     "ename": "",
     "evalue": "1",
     "output_type": "error",
     "traceback": []
    }
   ],
   "source": [
    "# Define the path to your MP4 video file\n",
    "VIDEO_FILE=\"/home/jack/Desktop/HDD500/complete-videos/640x640_splatter.mkv\"\n",
    "mkdir TTEMPP\n",
    "\n",
    "# Generate a list of random timestamps\n",
    "timestamps=$(ffmpeg -hide_banner -i \"$VIDEO_FILE\" -vf \"select='not(mod(n,50))',showinfo\" -an -f null - 2>&1 | awk '/^frame_pts/ {print $2}')\n",
    "\n",
    "# Extract frames at the selected timestamps\n",
    "ffmpeg -hide_banner -i \"$VIDEO_FILE\" -vf \"select='gte(t,$timestamps)',setpts='(N-1)/TB'\" -q:v 2 -start_number 0 -f image2 \"TTEMPP/%05d.jpg\"\n"
   ]
  },
  {
   "cell_type": "code",
   "execution_count": 26,
   "id": "2d90f728",
   "metadata": {},
   "outputs": [
    {
     "name": "stdout",
     "output_type": "stream",
     "text": [
      "ffmpeg version 4.2.7-0ubuntu0.1 Copyright (c) 2000-2022 the FFmpeg developers\n",
      "  built with gcc 9 (Ubuntu 9.4.0-1ubuntu1~20.04.1)\n",
      "  configuration: --prefix=/usr --extra-version=0ubuntu0.1 --toolchain=hardened --libdir=/usr/lib/x86_64-linux-gnu --incdir=/usr/include/x86_64-linux-gnu --arch=amd64 --enable-gpl --disable-stripping --enable-avresample --disable-filter=resample --enable-avisynth --enable-gnutls --enable-ladspa --enable-libaom --enable-libass --enable-libbluray --enable-libbs2b --enable-libcaca --enable-libcdio --enable-libcodec2 --enable-libflite --enable-libfontconfig --enable-libfreetype --enable-libfribidi --enable-libgme --enable-libgsm --enable-libjack --enable-libmp3lame --enable-libmysofa --enable-libopenjpeg --enable-libopenmpt --enable-libopus --enable-libpulse --enable-librsvg --enable-librubberband --enable-libshine --enable-libsnappy --enable-libsoxr --enable-libspeex --enable-libssh --enable-libtheora --enable-libtwolame --enable-libvidstab --enable-libvorbis --enable-libvpx --enable-libwavpack --enable-libwebp --enable-libx265 --enable-libxml2 --enable-libxvid --enable-libzmq --enable-libzvbi --enable-lv2 --enable-omx --enable-openal --enable-opencl --enable-opengl --enable-sdl2 --enable-libdc1394 --enable-libdrm --enable-libiec61883 --enable-nvenc --enable-chromaprint --enable-frei0r --enable-libx264 --enable-shared\n",
      "  WARNING: library configuration mismatch\n",
      "  avcodec     configuration: --prefix=/usr --extra-version=0ubuntu0.1 --toolchain=hardened --libdir=/usr/lib/x86_64-linux-gnu --incdir=/usr/include/x86_64-linux-gnu --arch=amd64 --enable-gpl --disable-stripping --enable-avresample --disable-filter=resample --enable-avisynth --enable-gnutls --enable-ladspa --enable-libaom --enable-libass --enable-libbluray --enable-libbs2b --enable-libcaca --enable-libcdio --enable-libcodec2 --enable-libflite --enable-libfontconfig --enable-libfreetype --enable-libfribidi --enable-libgme --enable-libgsm --enable-libjack --enable-libmp3lame --enable-libmysofa --enable-libopenjpeg --enable-libopenmpt --enable-libopus --enable-libpulse --enable-librsvg --enable-librubberband --enable-libshine --enable-libsnappy --enable-libsoxr --enable-libspeex --enable-libssh --enable-libtheora --enable-libtwolame --enable-libvidstab --enable-libvorbis --enable-libvpx --enable-libwavpack --enable-libwebp --enable-libx265 --enable-libxml2 --enable-libxvid --enable-libzmq --enable-libzvbi --enable-lv2 --enable-omx --enable-openal --enable-opencl --enable-opengl --enable-sdl2 --enable-libdc1394 --enable-libdrm --enable-libiec61883 --enable-nvenc --enable-chromaprint --enable-frei0r --enable-libx264 --enable-shared --enable-version3 --disable-doc --disable-programs --enable-libaribb24 --enable-liblensfun --enable-libopencore_amrnb --enable-libopencore_amrwb --enable-libtesseract --enable-libvo_amrwbenc\n",
      "  libavutil      56. 31.100 / 56. 31.100\n",
      "  libavcodec     58. 54.100 / 58. 54.100\n",
      "  libavformat    58. 29.100 / 58. 29.100\n",
      "  libavdevice    58.  8.100 / 58.  8.100\n",
      "  libavfilter     7. 57.100 /  7. 57.100\n",
      "  libavresample   4.  0.  0 /  4.  0.  0\n",
      "  libswscale      5.  5.100 /  5.  5.100\n",
      "  libswresample   3.  5.100 /  3.  5.100\n",
      "  libpostproc    55.  5.100 / 55.  5.100\n",
      "Input #0, matroska,webm, from '/home/jack/Desktop/HDD500/complete-videos/640x640_splatter.mkv':\n",
      "  Metadata:\n",
      "    ENCODER         : Lavf58.29.100\n",
      "  Duration: 00:03:42.00, start: 0.000000, bitrate: 1262 kb/s\n",
      "    Stream #0:0: Video: h264 (High), yuv420p(progressive), 512x512, 1 fps, 1 tbr, 1k tbn, 2 tbc (default)\n",
      "    Metadata:\n",
      "      ENCODER         : Lavc58.54.100 libx264\n",
      "      DURATION        : 00:03:42.000000000\n",
      "Stream mapping:\n",
      "  Stream #0:0 -> #0:0 (h264 (native) -> mjpeg (native))\n",
      "Press [q] to stop, [?] for help\n",
      "\u001b[48;5;0m\u001b[38;5;155m[Parsed_select_0 @ 0x560d5f6d96c0] \u001b[0m\u001b[48;5;0m\u001b[38;5;250m[Eval @ 0x7ffc256c0080] \u001b[0m\u001b[48;5;0m\u001b[38;5;196mUndefined constant or missing '(' in ')*n<50'\n",
      "\u001b[0m\u001b[48;5;0m\u001b[38;5;155m[Parsed_select_0 @ 0x560d5f6d96c0] \u001b[0m\u001b[48;5;0m\u001b[38;5;196mError while parsing expression 'random()*n<50'\n",
      "\u001b[0m\u001b[48;5;0m\u001b[38;5;155m[AVFilterGraph @ 0x560d5f6d8cc0] \u001b[0m\u001b[48;5;0m\u001b[38;5;196mError initializing filter 'select'\u001b[0m\u001b[48;5;0m\u001b[38;5;196m with args 'random()*n<50'\u001b[0m\u001b[48;5;0m\u001b[38;5;196m\n",
      "\u001b[0m\u001b[48;5;0m\u001b[38;5;196mError reinitializing filters!\n",
      "\u001b[0m\u001b[48;5;0m\u001b[38;5;196mFailed to inject frame into filter network: Invalid argument\n",
      "\u001b[0m\u001b[48;5;0m\u001b[38;5;208mError while processing the decoded data for stream #0:0\n",
      "\u001b[0mConversion failed!\n"
     ]
    },
    {
     "ename": "",
     "evalue": "1",
     "output_type": "error",
     "traceback": []
    }
   ],
   "source": [
    "# Define the path to your MP4 video file\n",
    "VIDEO_FILE=\"/home/jack/Desktop/HDD500/complete-videos/640x640_splatter.mkv\"\n",
    "mkdir TTEMPP\n",
    "# Select fifty random frames from the video\n",
    "ffmpeg -hide_banner -i \"$VIDEO_FILE\" -vf \"select='random()*n<50'\" -vsync 0 -start_number 0 -q:v 2 -f image2 \"TTEMPP/%05d.jpg\"\n",
    "[Parsed_select_0 @ 0x560d5f6d96c0] [Eval @ 0x7ffc256c0080] Undefined constant or missing '(' in ')*n<50'\n",
    "[Parsed_select_0 @ 0x560d5f6d96c0] Error while parsing expression 'random()*n<50'\n",
    "[AVFilterGraph @ 0x560d5f6d8cc0] Error initializing filter 'select' with args 'random()*n<50'\n",
    "Error reinitializing filters!\n",
    "Failed to inject frame into filter network: Invalid argument\n",
    "Error while processing the decoded data for stream #0:0"
   ]
  },
  {
   "cell_type": "code",
   "execution_count": null,
   "id": "75dfbd39",
   "metadata": {},
   "outputs": [],
   "source": [
    "!ls /mnt/HDD500/0WORKSHOP-with-NOTEBOOKS/saved_pages/AI_Celebrities_raw/2023-05-17-12-09-22-669081.raw"
   ]
  },
  {
   "cell_type": "code",
   "execution_count": null,
   "id": "fc8e768e",
   "metadata": {},
   "outputs": [],
   "source": [
    "import os\n",
    "import random\n",
    "import cv2\n",
    "\n",
    "# Define the path to your MP4 video file\n",
    "video_file = \"/home/jack/Desktop/HDD500/complete-videos/640x640_splatter.mkv\"\n",
    "output_dir = \"TTEMPP\"\n",
    "num_frames = 50\n",
    "\n",
    "# Create the output directory if it doesn't exist\n",
    "os.makedirs(output_dir, exist_ok=True)\n",
    "\n",
    "# Open the video file\n",
    "cap = cv2.VideoCapture(video_file)\n",
    "\n",
    "# Get the total number of frames\n",
    "total_frames = int(cap.get(cv2.CAP_PROP_FRAME_COUNT))\n",
    "\n",
    "# Select random frame indices\n",
    "frame_indices = random.sample(range(total_frames), num_frames)\n",
    "\n",
    "# Extract frames at the selected indices\n",
    "for i, frame_idx in enumerate(frame_indices):\n",
    "    # Set the frame position\n",
    "    cap.set(cv2.CAP_PROP_POS_FRAMES, frame_idx)\n",
    "\n",
    "    # Read the frame\n",
    "    ret, frame = cap.read()\n",
    "    if not ret:\n",
    "        continue\n",
    "\n",
    "    # Save the frame as an image\n",
    "    output_path = os.path.join(output_dir, f\"{i+1:05d}.jpg\")\n",
    "    cv2.imwrite(output_path, frame)\n",
    "    print(f\"Saved frame {i+1}/{num_frames}\")\n",
    "\n",
    "# Release the video file\n",
    "cap.release()\n",
    "\n",
    "print(\"Extraction complete!\")\n"
   ]
  }
 ],
 "metadata": {
  "kernelspec": {
   "display_name": "Bash",
   "language": "bash",
   "name": "bash"
  },
  "language_info": {
   "codemirror_mode": "shell",
   "file_extension": ".sh",
   "mimetype": "text/x-sh",
   "name": "bash"
  }
 },
 "nbformat": 4,
 "nbformat_minor": 5
}
